<?xml version="1.0" encoding="iso-8859-1"?>
<!-- Uploaded to: SVG Repo, www.svgrepo.com, Generator: SVG Repo Mixer Tools -->
<!DOCTYPE svg PUBLIC "-//W3C//DTD SVG 1.1//EN" "http://www.w3.org/Graphics/SVG/1.1/DTD/svg11.dtd">
<svg fill="#000000" version="1.1" id="Capa_1" xmlns="http://www.w3.org/2000/svg" xmlns:xlink="http://www.w3.org/1999/xlink" 
	 width="800px" height="800px" viewBox="0 0 482.836 482.836"
	 xml:space="preserve">
<g>
	<g id="Layer_2_18_">
		<g>
			<path d="M209.981,398.961c2.477,0,4.753-0.833,6.586-2.22c6.167-4.058,10.323-12.507,14.101-12.655l10.75,0.052l10.75-0.052
				c3.777,0.147,7.934,8.598,14.101,12.655c1.833,1.387,4.11,2.22,6.586,2.22c5.936,0,10.755-4.73,10.922-10.625h0.017v-22.875
				h-0.028c-0.295-5.777-5.059-10.375-10.909-10.375c-0.596,0-1.177,0.061-1.747,0.152c-0.146,0.021-0.297,0.039-0.439,0.066
				c-0.041,0.008-0.079,0.021-0.119,0.029c-0.297,0.062-0.587,0.137-0.871,0.225c-0.126,0.037-0.249,0.084-0.373,0.127
				c-0.159,0.057-0.319,0.11-0.474,0.174c-1.089,0.432-2.095,1.026-2.979,1.766c-5.114,3.994-8.373,11.396-14.837,11.879
				c-0.615,0.047-1.244,0.05-1.877,0.039c-0.565-0.007-4.426-0.01-7.719-0.01c-3.293,0-7.153,0.003-7.719,0.01
				c-0.634,0.011-1.263,0.008-1.877-0.039c-6.464-0.482-9.723-7.885-14.837-11.879c-0.885-0.739-1.89-1.334-2.979-1.766
				c-0.155-0.063-0.315-0.117-0.474-0.174c-0.124-0.043-0.247-0.09-0.373-0.127c-0.284-0.088-0.574-0.162-0.871-0.225
				c-0.04-0.008-0.079-0.021-0.119-0.029c-0.144-0.027-0.293-0.045-0.44-0.066c-0.57-0.092-1.151-0.152-1.747-0.152
				c-5.851,0-10.614,4.598-10.909,10.375h-0.028v22.875h0.016C199.226,394.23,204.045,398.961,209.981,398.961z"/>
			<path d="M192.812,253.162c11.39,0,20.654-9.247,20.654-20.668c0-11.409-9.264-20.67-20.654-20.67
				c-11.422,0-20.685,9.261-20.685,20.67C172.127,243.887,181.39,253.162,192.812,253.162z M197.05,224.448
				c5.851,0,10.575,4.751,10.575,10.593c0,5.868-4.724,10.619-10.575,10.619c-5.854,0-10.595-4.751-10.595-10.619
				C186.456,229.2,191.196,224.448,197.05,224.448z"/>
			<path d="M305.699,281.148c-1.604,0-3.056,0.636-4.127,1.664c-1.577,1.268-3.037,2.84-4.726,2.07
				c-12.223-7.427-23.18-31.71-54.263-31.71c-0.397,0-1.936,0-2.333,0c-31.083,0-42.041,24.283-54.263,31.71
				c-1.688,0.771-3.147-0.803-4.725-2.07c-1.072-1.029-2.524-1.664-4.127-1.664c-3.296,0-5.969,2.672-5.969,5.97
				c0,0.243,0.019,0.483,0.047,0.719c0.215,5.946,14.127,12.188,24.733,9.465c0.895-0.225,25.032-3.262,45.47-23.762
				c20.438,20.5,44.575,23.537,45.469,23.762c10.605,2.724,24.519-3.519,24.733-9.465c0.027-0.235,0.047-0.476,0.047-0.719
				C311.667,283.82,308.996,281.148,305.699,281.148z"/>
			<path d="M290.024,253.162c11.422,0,20.685-9.275,20.685-20.668c0-11.409-9.263-20.67-20.685-20.67
				c-11.391,0-20.654,9.261-20.654,20.67C269.37,243.915,278.633,253.162,290.024,253.162z M285.786,224.448
				c5.854,0,10.595,4.751,10.595,10.593c0,5.868-4.74,10.619-10.595,10.619c-5.852,0-10.575-4.751-10.575-10.619
				C275.21,229.2,279.934,224.448,285.786,224.448z"/>
			<path d="M379.864,177.803c-0.622-2.426-1.331-4.831-2.077-7.224c46.404-17.424,46.907-55.749,23.769-75.996
				c-17.356-15.178-29.063-8.096-54.896,1.332v-8.88c0-41.848-23.656-86.899-104.313-87.033V0c-0.011,0-0.779,0-0.804,0
				c0,0-0.022,0-0.033,0v0.002c-0.03,0-0.059,0.001-0.089,0.001c-0.03,0-0.059-0.001-0.089-0.001V0c-0.011,0-0.033,0-0.033,0
				c-0.025,0-0.793,0-0.804,0v0.002c-80.659,0.134-104.315,45.185-104.315,87.033v8.88c-25.833-9.428-37.54-16.51-54.897-1.332
				c-23.139,20.247-22.636,58.571,23.769,75.996c-0.747,2.393-1.455,4.798-2.077,7.224c-16.047,6.903-25.784,24.47-25.784,47.315
				c0,13.726,3.252,24.797,9.666,32.905c6.455,8.162,15.786,12.783,27.121,13.472c11.549,20.368,28.479,38.882,48.166,52.565
				c23.58,16.392,49.688,25.055,75.501,25.055c0.509,0,1.869,0,3.178,0c0.06,0,0.12,0,0.18,0c0.139,0,0.278,0,0.417,0
				s0.278,0,0.417,0c0.06,0,0.12,0,0.18,0c1.31,0,2.669,0,3.178,0c25.813,0,51.922-8.663,75.502-25.055
				c19.687-13.685,36.616-32.197,48.166-52.565c11.334-0.688,20.666-5.31,27.12-13.472c6.414-8.108,9.666-19.18,9.666-32.905
				C405.647,202.273,395.911,184.706,379.864,177.803z M365.853,253.102c-0.331,0-0.817-0.039-1.335-0.08l-6.541-0.504l-2.809,5.449
				c-18.041,34.998-60.151,72.664-109.976,72.664c-0.506,0-1.866,0-3.178,0c-0.06,0-0.12,0-0.18,0c-0.139,0-0.278,0-0.417,0
				s-0.278,0-0.417,0c-0.06,0-0.12,0-0.18,0c-1.311,0-2.672,0-3.178,0c-49.824,0-91.935-37.667-109.975-72.664l-2.809-5.449
				l-6.541,0.504c-0.517,0.041-1.004,0.08-1.335,0.08c-14.14,0-21.31-9.416-21.31-27.983c0-6.117,1.196-26.004,16.17-30.923
				c0.932,6.406,4.553,26.967,12.781,28.267c9.756,1.54,2.666-46.706,26.983-46.706c9.532,0,49.401,0,89.213,0c0.06,0,0.12,0,0.18,0
				c0.139,0,0.278,0,0.417,0s0.278,0,0.417,0c0.06,0,0.12,0,0.18,0c39.812,0,79.682,0,89.213,0
				c24.317,0,17.228,48.245,26.983,46.706c8.229-1.3,11.849-21.861,12.781-28.267c14.975,4.918,16.17,24.806,16.17,30.923
				C387.163,243.686,379.994,253.102,365.853,253.102z"/>
			<path d="M326.002,369.668c-5.168,0-14.127-0.082-14.127-0.082l-0.046,0.023c-0.158-0.006-0.314-0.023-0.476-0.023
				c-4.009,0-7.504,2.163-9.407,5.38l-50.779,68.162c0,0-0.026,0.014-0.041,0.021c-1.959,2.639-5.088,4.354-8.626,4.354
				c-0.368,0-0.727-0.032-1.083-0.068c-0.357,0.036-0.716,0.068-1.083,0.068c-3.538,0-6.667-1.717-8.626-4.354
				c-0.014-0.007-0.041-0.021-0.041-0.021l-50.779-68.162c-1.904-3.217-5.399-5.38-9.408-5.38c-0.16,0-0.316,0.018-0.475,0.023
				l-0.046-0.023c0,0-8.959,0.082-14.127,0.082c-28.807,0-67.387,26.235-67.387,59.672c0,33.434,0,53.496,0,53.496l150.492-0.042
				h1.48h1.48l150.492,0.042c0,0,0-20.062,0-53.496C393.389,395.903,354.809,369.668,326.002,369.668z"/>
		</g>
	</g>
</g>
</svg>